<?xml version="1.0" encoding="UTF-8" standalone="no"?>
<svg
   height="128"
   width="128"
   version="1.1"
   id="svg24"
   sodipodi:docname="icon.svg"
   inkscape:version="1.1 (c68e22c387, 2021-05-23)"
   xmlns:inkscape="http://www.inkscape.org/namespaces/inkscape"
   xmlns:sodipodi="http://sodipodi.sourceforge.net/DTD/sodipodi-0.dtd"
   xmlns="http://www.w3.org/2000/svg"
   xmlns:svg="http://www.w3.org/2000/svg">
  <defs
     id="defs28" />
  <sodipodi:namedview
     id="namedview26"
     pagecolor="#ffffff"
     bordercolor="#666666"
     borderopacity="1.0"
     inkscape:pageshadow="2"
     inkscape:pageopacity="0.0"
     inkscape:pagecheckerboard="0"
     showgrid="false"
     inkscape:zoom="5.9538391"
     inkscape:cx="60.381208"
     inkscape:cy="73.146082"
     inkscape:window-width="2560"
     inkscape:window-height="1369"
     inkscape:window-x="2552"
     inkscape:window-y="-8"
     inkscape:window-maximized="1"
     inkscape:current-layer="svg24" />
  <path
     style="fill:#323232;stroke:#000000;stroke-width:1px;stroke-linecap:butt;stroke-linejoin:miter;stroke-opacity:1;fill-opacity:1"
     d="M 8.0867745,104.35049 34.887174,95.175115 c 0,0 21.668409,-2.4364 29.495992,-1.710664 7.827583,0.725736 11.352587,0.933089 22.912528,4.509932 11.55994,3.576847 9.071702,3.421327 14.566566,6.168757 5.49485,2.74743 17.57318,10.47134 19.54303,11.61178 1.96986,1.14044 2.48824,6.53162 0.62206,7.93126 -1.86618,1.39963 -9.90111,3.21397 -15.55149,3.1103 -5.65037,-0.10368 -89.213707,1.34779 -93.723639,-0.62206 -4.5099316,-1.96986 -5.9095657,0.10367 -6.7908167,-5.90957 -0.8812511,-6.01324 2.1253702,-15.91436 2.1253702,-15.91436 z"
     id="path18639" />
  <path
     style="fill:#d71d1d;stroke:#000000;stroke-width:1px;stroke-linecap:butt;stroke-linejoin:miter;stroke-opacity:1;fill-opacity:1"
     d="M 6.4279489,9.4345702 8.0867745,104.35049 c 0,0 5.1838295,-2.12537 12.4411915,-4.924635 7.257362,-2.799268 19.594877,-5.598536 27.577974,-5.909566 7.983098,-0.311029 23.949294,0.207353 31.102979,1.866179 7.153685,1.658826 18.765464,6.842652 23.430911,9.538242 4.66545,2.6956 9.64192,5.59854 14.6184,8.50149 4.97648,2.90294 7.15368,0.31103 7.15368,0.31103 L 123.5825,25.608119 122.44206,6.9463319 114.04426,2.1772085 67.286111,1.8661787 15.862519,2.3845617 7.0500085,6.1169191 Z"
     id="path18674" />
  <rect
     x="2.4398673"
     y="2.1466208"
     width="124"
     height="124"
     rx="14"
     fill="#363d52"
     stroke="#212532"
     stroke-width="4"
     id="rect2"
     style="fill:#363d52;fill-opacity:0;stroke:#000000;stroke-opacity:1" />
  <ellipse
     style="fill:#ffffff;fill-opacity:1;stroke:#323232;stroke-width:1.06297;stroke-opacity:1"
     id="path26722"
     cx="55.000439"
     cy="45.462189"
     rx="41.594666"
     ry="41.387318" />
  <path
     style="fill:#000000;stroke-width:0.243869"
     d="M 3.237864,82.206432 V -17.65636 l 60.967202,0.0011 60.967194,0.0011 v 99.86152 99.86141 H 64.205066 3.237864 Z M 19.21127,173.59169 c 6.212581,-6.05038 15.171661,-11.2454 26.43302,-15.32749 3.827539,-1.38743 10.307193,-3.07475 10.618781,-2.76516 0.125188,0.12439 0.180058,0.27343 0.121934,0.33122 -0.05812,0.0578 -1.861529,0.72841 -4.007576,1.49027 -5.475868,1.94398 -15.039831,5.81997 -15.695951,6.36108 -0.04859,0.0401 2.036486,0.0115 4.633506,-0.0643 3.947619,-0.11465 5.367445,-0.0534 8.659123,0.37387 4.302929,0.5585 6.249506,1.12036 6.388881,1.84406 0.07712,0.40043 -0.02551,0.43726 -0.851527,0.30557 -0.516568,-0.0823 -1.981751,-0.31628 -3.255966,-0.51986 -5.539893,-0.88504 -11.307216,-0.73424 -17.788099,0.46513 -3.281859,0.60735 -5.050203,1.26745 -6.4671,2.41409 l -0.721859,0.58417 1.209595,-0.21689 c 2.192335,-0.39313 11.305154,-0.53957 14.279027,-0.22949 2.940083,0.30657 8.177238,1.26322 9.305535,1.69979 0.629241,0.24349 0.89686,0.83844 0.487737,1.08432 -0.100591,0.0605 -0.896218,-0.0404 -1.768049,-0.22431 -4.35965,-0.91921 -7.434631,-1.17875 -14.022456,-1.18355 -5.174954,-0.003 -7.080395,0.0848 -8.901213,0.41366 -3.962141,0.71567 -4.060766,0.76347 -6.462522,3.13178 l -2.194821,2.16425 37.738698,0.003 c 20.756286,0.002 37.737124,-0.079 37.735199,-0.17957 -0.0079,-0.41247 -7.187617,-7.93923 -10.351935,-10.85232 -7.452326,-6.86064 -13.976389,-11.21818 -23.663581,-15.8053 -8.487246,-4.01893 -12.514393,-4.08952 -25.850776,-0.45321 -8.020221,2.18679 -16.187723,5.61049 -22.713668,9.52122 -1.09165,0.65419 -2.1067539,1.18942 -2.2557861,1.18942 -0.1933983,0 -0.2709677,2.37361 -0.2709677,8.29155 v 8.29154 l 3.7189998,-7.4e-4 3.718998,-7.3e-4 2.194819,-2.13752 z m 81.78974,1.10244 c -2.174108,-2.81373 -6.625797,-7.75044 -9.299529,-10.31273 -6.381378,-6.11539 -12.607383,-10.83031 -20.843215,-15.78442 -4.99827,-3.00662 -7.116026,-3.5961 -12.871854,-3.58295 l -3.170294,0.007 3.04836,1.21735 c 11.652902,4.6535 22.426701,11.8857 30.588935,20.53363 2.929783,3.10412 6.96686,8.11689 6.96686,8.65062 0,0.23202 0.784881,0.3077 3.190788,0.3077 h 3.190789 z m 8.2159,0.24387 c -0.35183,-0.43592 -1.37058,-1.72538 -2.26393,-2.86546 -5.52687,-7.05345 -13.117042,-14.37755 -21.200344,-20.45718 -5.28782,-3.97707 -7.331323,-4.85024 -13.221584,-5.64942 -5.159688,-0.70006 -5.172611,-0.69417 -2.157197,0.98271 8.867472,4.93122 15.676369,10.07422 22.731311,17.16981 4.070908,4.09435 8.188864,8.90425 9.366144,10.93993 l 0.38696,0.6691 3.49916,0.001 3.49914,0.001 -0.63966,-0.79257 z m 8.04485,0.0904 c -0.1997,-0.38619 -1.17002,-1.78538 -2.15624,-3.10932 -5.19258,-6.97073 -10.74453,-12.58303 -17.368493,-17.55736 -4.623016,-3.47169 -5.672411,-4.00023 -10.390871,-5.23337 -5.867879,-1.53352 -5.87431,-1.53256 -2.899979,0.43408 9.705922,6.41764 18.051083,14.44211 24.218193,23.28759 0.89754,1.28734 1.6319,2.46211 1.6319,2.61058 0,0.18539 1.14793,0.26996 3.6643,0.26996 h 3.66429 z m 1.56992,-6.43636 v -7.13852 l -3.10933,-1.62276 c -3.06945,-1.60195 -6.86583,-3.32027 -10.66926,-4.82916 -1.07302,-0.42568 -3.26784,-1.35585 -4.87738,-2.06703 -2.63977,-1.1664 -4.755437,-1.9292 -4.755437,-1.71458 0,0.0446 0.740752,0.6045 1.646116,1.24449 5.275821,3.72945 11.101651,8.96575 14.615901,13.13691 2.15517,2.55804 6.74294,9.2239 6.74294,9.79725 0,0.18255 0.0914,0.33192 0.20322,0.33192 0.11178,0 0.20323,-3.21233 0.20323,-7.13852 z m -2.46752,-19.59762 c -4.18525,-4.71702 -7.47743,-7.57468 -12.57196,-10.91267 -2.98062,-1.95292 -8.078934,-4.44493 -11.504855,-5.62344 -2.199638,-0.75667 -2.82027,-0.86801 -4.83907,-0.86801 -4.948714,0 -11.758088,1.97248 -18.975505,5.49666 -3.958127,1.93271 -9.632817,5.60794 -9.632817,6.2387 0,0.11783 1.731697,0.21421 3.848215,0.21421 5.805094,0 10.295314,0.64701 21.302952,3.06958 12.900136,2.83907 24.2747,7.14561 32.64574,12.36008 l 2.07288,1.29123 0.0667,-4.23621 0.0667,-4.2362 z m -102.761871,6.56559 c 3.673896,-2.15486 5.11574,-2.87862 8.806646,-4.42069 9.93474,-4.15076 23.324162,-7.33439 31.431708,-7.47359 2.372228,-0.0408 3.047299,-0.33591 5.575939,-2.43824 2.752139,-2.28813 4.861245,-3.62009 8.323362,-5.25642 6.545351,-3.0936 9.330719,-4.05863 15.080167,-5.22476 11.784162,-2.39013 23.713909,-2.64886 33.904659,-0.7353 1.0543,0.19798 1.95967,0.35996 2.01192,0.35996 0.0522,0 0.0915,-3.37455 0.0873,-7.49897 l -0.008,-7.49897 -2.24804,-1.44591 c -5.53948,-3.56293 -11.5252,-7.16525 -14.44147,-8.69112 -3.099446,-1.62172 -5.706269,-2.77202 -5.882532,-2.59576 -0.04851,0.0486 0.812716,0.7933 1.913842,1.65505 4.59181,3.59366 8.74145,8.29788 12.24566,13.88222 1.51258,2.41047 2.74375,5.38283 2.43591,5.88093 -0.23757,0.38441 -0.5362,0.0169 -1.46099,-1.79766 -2.15782,-4.23411 -5.24867,-8.2515 -9.98983,-12.98447 -2.905358,-2.90035 -4.395477,-4.16199 -7.194125,-6.0911 -4.467409,-3.07937 -6.898283,-4.300614 -10.723899,-5.387581 -7.570989,-2.151129 -13.808175,-3.112526 -22.801734,-3.514651 -5.24194,-0.234384 -16.65981,0.05785 -17.73012,0.453772 -0.470691,0.174122 -0.368386,0.255969 0.79095,0.632816 4.038003,1.312587 11.598932,5.724784 18.109336,10.567754 4.384507,3.26154 4.761795,3.6013 4.400436,3.96265 -0.188466,0.18847 -1.433194,-0.5863 -4.380155,-2.72639 -8.829154,-6.41176 -13.361141,-9.137577 -18.494258,-11.123656 -2.090492,-0.808838 -2.320328,-0.846603 -4.400512,-0.723116 -2.086463,0.123856 -4.76209,0.630447 -4.749648,0.899263 0.0032,0.06888 0.999146,0.44249 2.213247,0.830307 2.694764,0.860783 6.970826,3.007442 11.68148,5.864312 1.944855,1.17949 4.281298,2.56771 5.192098,3.08492 2.215704,1.25824 7.284614,5.10335 7.172313,5.44069 -0.201596,0.60556 -0.951996,0.34315 -2.887186,-1.00961 -2.607944,-1.82307 -10.798613,-6.89457 -14.070186,-8.71201 -4.245777,-2.358632 -10.330848,-4.999504 -11.554153,-5.014409 -0.708782,-0.0092 -8.239766,2.241118 -8.239766,2.461495 0,0.09039 0.685881,0.298577 1.52418,0.462557 2.487547,0.486617 8.144724,2.325307 11.280447,3.666377 5.576284,2.38481 9.919555,4.97119 14.836507,8.83502 2.558436,2.01047 2.673624,2.0714 3.536098,1.87039 0.490335,-0.11431 2.921724,-0.38832 5.403089,-0.60897 10.26029,-0.91244 21.805816,0.22462 31.130195,3.06583 2.129596,0.6489 2.540177,0.89402 2.03799,1.21667 -0.200078,0.12854 -0.584171,0.18603 -0.853542,0.12774 -1.054175,-0.2281 -12.588199,-2.08941 -15.121891,-2.4403 -3.255365,-0.45081 -12.559244,-0.77994 -12.559244,-0.44429 0,0.1278 0.905363,0.59935 2.011918,1.04789 5.582284,2.26279 9.695398,4.7676 13.05159,7.94822 1.673529,1.58599 2.066626,2.08262 1.836676,2.32051 -0.231044,0.23902 -0.771253,-0.0588 -2.569029,-1.4159 -8.376998,-6.32401 -15.665295,-9.40556 -21.995031,-9.2997 -3.654839,0.0612 -3.571094,0.21669 0.952626,1.76959 2.277503,0.78181 4.779183,1.74368 5.559289,2.13748 1.965936,0.9924 7.399275,4.69543 8.640352,5.88873 1.950629,1.87554 0.628268,1.60912 -2.14446,-0.43205 -2.734103,-2.01273 -10.095498,-5.61551 -14.288207,-6.99288 -4.538936,-1.49109 -5.373016,-1.54876 -8.614277,-0.59554 -13.245359,3.89528 -27.031008,10.42533 -35.407549,16.77199 -1.031571,0.78159 -1.991805,1.42107 -2.1338508,1.42107 -0.1780412,0 -0.258267,3.49332 -0.258267,11.24602 v 11.24601 l 0.5487048,-0.3539 c 0.301788,-0.19464 1.865596,-1.12628 3.475131,-2.07032 z m 105.229391,-8.71897 v -3.2833 l -2.2558,-2.27942 c -4.14878,-4.19228 -11.13047,-9.21812 -14.37495,-10.34798 -1.73487,-0.60415 -1.8895,-0.61577 -5.927116,-0.44577 -4.269082,0.17974 -5.53619,0.41324 -4.003799,0.73779 1.272113,0.26944 5.975557,2.22972 8.027635,3.34574 6.07785,3.30541 12.06474,8.18754 16.33921,13.32411 1.00597,1.20884 1.91132,2.2056 2.01193,2.21501 0.10062,0.009 0.18289,-1.46037 0.18289,-3.26618 z m 0,-10.32944 v -5.07733 l -2.13386,-0.2787 c -3.71622,-0.48534 -8.40851,-0.82063 -10.36065,-0.74029 l -1.88621,0.0776 2.37395,1.40692 c 3.59993,2.13348 6.50579,4.38392 9.20227,7.12666 1.34129,1.36429 2.521,2.49897 2.62161,2.5215 0.10062,0.0225 0.18289,-2.24384 0.18289,-5.03637 z M 11.964642,132.19997 c 5.276157,-3.85514 11.455868,-7.32778 18.708463,-10.51308 6.403667,-2.81245 8.156749,-3.51196 10.445416,-4.16782 1.229669,-0.35238 2.656689,-0.82885 3.171155,-1.05881 l 0.935393,-0.41811 -3.861818,-2.56633 c -6.710297,-4.45926 -11.720729,-6.56095 -19.32724,-8.10706 -5.06726,-1.02999 -8.924143,-1.25796 -11.786919,-0.69674 l -0.6706388,0.13148 v 14.51114 c 0,7.98113 0.08632,14.47457 0.1918148,14.42985 0.105502,-0.0448 1.092964,-0.73974 2.194374,-1.5445 z m 38.043115,-17.24141 c 1.11098,-0.282 1.988908,-0.59374 1.95095,-0.69279 -0.03797,-0.099 -0.672591,-0.66511 -1.410294,-1.25792 -5.482429,-4.4057 -12.632767,-8.28629 -20.102012,-10.90963 -5.774332,-2.02806 -8.38714,-2.387742 -10.892116,-1.4994 -2.200726,0.78044 -5.740079,2.4505 -5.22039,2.46328 3.235971,0.0796 8.857566,1.00056 12.19344,1.99774 5.905167,1.76522 12.76436,5.18553 17.322595,8.63784 3.044943,2.30618 2.48843,2.19222 6.157827,1.26088 z M 118.83168,50.991682 V -11.3168 H 64.205066 9.5784532 v 57.187232 c 0,31.452985 0.051486,57.187228 0.1144145,57.187228 0.062929,0 1.6267333,-0.66967 3.4751313,-1.48817 10.399138,-4.604892 19.153508,-7.176281 28.601141,-8.400894 4.294145,-0.556604 15.112062,-0.874145 19.753374,-0.579812 8.963992,0.56844 16.996979,1.946381 24.19633,4.150515 2.653278,0.812322 10.916805,4.053531 14.091072,5.526971 4.044514,1.87738 11.149164,6.01634 16.702854,9.73056 1.07182,0.71684 2.03205,1.30332 2.13383,1.30332 0.10179,0 0.18508,-28.038808 0.18508,-62.308468 z M 51.645823,87.531234 C 42.354421,86.762451 34.453772,83.370656 27.061132,76.976884 15.398813,66.890326 10.403449,51.311259 13.861518,35.811174 18.358321,15.655181 37.639454,1.5307157 58.23028,3.3086781 c 5.727713,0.4945851 10.288267,1.7112272 15.119867,4.0336391 13.542598,6.5095198 22.84191,20.2385878 23.747735,35.0600508 0.683287,11.180265 -2.264264,20.746755 -8.987139,29.168397 -2.325914,2.913632 -6.071209,6.490246 -8.929159,8.526984 -2.596271,1.850252 -7.650311,4.380218 -10.757717,5.385119 -5.038963,1.629543 -11.825768,2.458125 -16.778044,2.048366 z m 9.841053,-2.39131 C 69.563247,83.718592 76.463679,80.324841 82.074941,75.014357 87.927806,69.475216 92.1184,62.554705 93.963378,55.381319 95.967183,47.590399 95.417258,37.83241 92.56904,30.639979 87.725335,18.408466 76.202992,8.5919992 63.660418,6.0112605 59.529024,5.1611956 55.550203,4.9019258 51.810263,5.2390974 41.732745,6.1476173 33.92959,9.6192807 27.258941,16.162105 c -5.66734,5.558737 -9.4927,11.959064 -11.415755,19.100031 -0.848843,3.152064 -1.021459,4.81375 -1.013306,9.754758 0.0074,4.49645 0.07605,5.325331 0.68232,8.240528 1.974972,9.496465 6.437654,16.977272 13.697692,22.961479 6.020437,4.962457 12.122182,7.685245 19.981058,8.916181 2.820342,0.441754 9.797666,0.444492 12.295926,0.0046 z"
     id="path17189" />
  <path
     style="fill:#000000;stroke:#000000;stroke-width:1px;stroke-linecap:butt;stroke-linejoin:miter;stroke-opacity:1;fill-opacity:1"
     d="M 9.0538373,20.636884 C 9.1823229,9.5127321 10.33677,3.7632683 19.097366,3.5922107 L 12.132875,1.9427262 5.6449026,6.9644903 6.1214204,15.651776 Z"
     id="path27072"
     sodipodi:nodetypes="cccccc" />
  <path
     style="fill:#000000;fill-opacity:1;stroke:#000000;stroke-width:1px;stroke-linecap:butt;stroke-linejoin:miter;stroke-opacity:1"
     d="M 119.48232,20.664013 C 119.35383,9.5398612 118.19939,3.7903974 109.43879,3.6193398 l 6.96449,-1.6494845 6.48797,5.0217641 -0.47652,8.6872866 z"
     id="path27072-3"
     sodipodi:nodetypes="cccccc" />
  <path
     style="fill:#000000;fill-opacity:1;stroke:#000000;stroke-width:1px;stroke-linecap:butt;stroke-linejoin:miter;stroke-opacity:1"
     d="m 9.4799564,107.62126 c 0.128486,11.12415 1.2829326,16.87362 10.0435286,17.04467 l -6.964491,1.64949 -6.4879716,-5.02177 0.476517,-8.68728 z"
     id="path27072-0"
     sodipodi:nodetypes="cccccc" />
  <path
     style="fill:#000000;fill-opacity:1;stroke:#000000;stroke-width:1px;stroke-linecap:butt;stroke-linejoin:miter;stroke-opacity:1"
     d="m 119.90844,107.59413 c -0.12849,11.12415 -1.28293,16.87362 -10.04353,17.04467 l 6.96449,1.64949 6.48797,-5.02176 -0.47652,-8.68729 z"
     id="path27072-3-1"
     sodipodi:nodetypes="cccccc" />
  <path
     style="fill:#ffffff;stroke:#000000;stroke-width:1px;stroke-linecap:butt;stroke-linejoin:miter;stroke-opacity:1;fill-opacity:1"
     d="M 0.95227376,15.951706 C 1.0134517,9.5397928 5.6418373,0.63035932 17.875676,0.63035932 c 12.233838,0 -2.583378,-4.93293802 -2.583378,-4.93293802 l -19.6726342,0.6220595 -2.5400766,17.3399102 4.5617702,7.075928 c 0.9849277,-2.306804 3.19605694,10.078757 3.31091636,-4.783613 z"
     id="path28927"
     sodipodi:nodetypes="csccccc" />
  <rect
     style="fill:#ffffff;fill-opacity:1;stroke:none;stroke-opacity:1"
     id="rect31067"
     width="25.059381"
     height="39.311165"
     x="-24.821854"
     y="-8.5510693" />
  <path
     style="fill:#ffffff;fill-opacity:1;stroke:#000000;stroke-width:1px;stroke-linecap:butt;stroke-linejoin:miter;stroke-opacity:1"
     d="m 127.2406,16.02724 c -0.0612,-6.4119128 -4.68956,-15.32134635 -16.9234,-15.32134635 -12.233837,0 2.58338,-4.93293825 2.58338,-4.93293825 l 19.67263,0.62206 2.54008,17.3399096 -4.56177,7.075928 c -0.98493,-2.306804 -3.19606,10.078757 -3.31092,-4.783613 z"
     id="path28927-6"
     sodipodi:nodetypes="csccccc" />
  <path
     style="fill:#ffffff;fill-opacity:1;stroke:#000000;stroke-width:1px;stroke-linecap:butt;stroke-linejoin:miter;stroke-opacity:1"
     d="m 2.0238709,111.70555 c 0.06118,6.41192 4.689563,15.32135 16.9234021,15.32135 12.233838,0 -2.583378,4.93294 -2.583378,4.93294 l -19.6726341,-0.62206 -2.540077,-17.33991 4.56177,-7.07593 c 0.98492801,2.30681 3.196057,-10.078755 3.310917,4.78361 z"
     id="path28927-2"
     sodipodi:nodetypes="csccccc" />
  <path
     style="fill:#ffffff;fill-opacity:1;stroke:#000000;stroke-width:1px;stroke-linecap:butt;stroke-linejoin:miter;stroke-opacity:1"
     d="m 128.3122,111.63002 c -0.0612,6.41191 -4.68956,15.32135 -16.9234,15.32135 -12.23384,0 2.58338,4.93294 2.58338,4.93294 l 19.67263,-0.62206 2.54008,-17.33991 -4.56177,-7.07593 c -0.98493,2.3068 -3.19606,-10.078759 -3.31092,4.78361 z"
     id="path28927-6-9"
     sodipodi:nodetypes="csccccc" />
  <rect
     style="fill:#ffffff;fill-opacity:1;stroke:none;stroke-width:1.00653;stroke-opacity:1"
     id="rect31041"
     width="144.65558"
     height="27.553444"
     x="-12.351544"
     y="-27.553444" />
  <rect
     style="fill:#ffffff;fill-opacity:1;stroke:none;stroke-opacity:1"
     id="rect31433"
     width="22.170568"
     height="136.55055"
     x="127.81669"
     y="-10.24549" />
  <rect
     style="fill:#ffffff;fill-opacity:1;stroke:none;stroke-opacity:1"
     id="rect31433-4"
     width="22.170568"
     height="136.55055"
     x="-20.994852"
     y="-1.2596929" />
  <rect
     style="fill:#ffffff;fill-opacity:1;stroke:none;stroke-width:1.01291;stroke-opacity:1"
     id="rect31065"
     width="157.83849"
     height="65.43335"
     x="-14.845606"
     y="127.55648" />
</svg>
